# xmcd CD database file
#
# Track frame offsets:
#	150
#	31774
#	69654
#	97288
#	122719
#	149728
#	187881
#	220568
#	273646
#
# Disc length: 4055 seconds
#
# Revision: 0
# Processed by: cddbd v1.5.1PL0 Copyright (c) Steve Scherf et al.
# Submitted via: CDex 1.51
#
DISCID=8a0fd509
DTITLE=Eugene Pao - Eugene Pao Project
DYEAR=2005
DGENRE=Jazz
TTITLE0=In Da Genes
TTITLE1=Beneath the Surface
TTITLE2=Everywhere is you
TTITLE3=Flor De Liz
TTITLE4=Brother To Brother
TTITLE5=Voice of the City
TTITLE6=Little Steps
TTITLE7=Free Spirits
TTITLE8=This Window *
EXTD=YEAR: 2005
EXTT0=
EXTT1=
EXTT2=
EXTT3=
EXTT4=
EXTT5=
EXTT6=
EXTT7=
EXTT8=
PLAYORDER=
